<svg width="186" height="180" viewBox="0 0 186 180" fill="none" xmlns="http://www.w3.org/2000/svg">
<circle cx="178.466" cy="27.5" r="7.5" fill="url(#paint0_linear_29222_3472)"/>
<circle cx="20.0332" cy="10" r="10" fill="url(#paint1_linear_29222_3472)"/>
<circle cx="10.0332" cy="133" r="5" fill="url(#paint2_linear_29222_3472)"/>
<circle cx="165.533" cy="160.5" r="2.5" fill="url(#paint3_linear_29222_3472)"/>
<circle cx="106.533" cy="4.5" r="2.5" fill="url(#paint4_linear_29222_3472)"/>
<circle cx="62.5332" cy="176.5" r="3.5" fill="url(#paint5_linear_29222_3472)"/>
<circle cx="122.033" cy="171" r="1" fill="url(#paint6_linear_29222_3472)"/>
<circle cx="170.533" cy="110.5" r="2.5" fill="url(#paint7_linear_29222_3472)"/>
<circle cx="1.0332" cy="75" r="1" fill="url(#paint8_linear_29222_3472)"/>
<path d="M98.1771 150.283C130.57 150.283 156.831 124.022 156.831 91.5135C156.831 59.005 130.454 32.7437 98.1771 32.7437C65.7843 32.7437 39.5229 59.005 39.5229 91.5135C39.5229 124.022 65.7843 150.283 98.1771 150.283Z" fill="#EAEEF9"/>
<path d="M153.013 52.9889C155.633 52.9889 157.756 50.8653 157.756 48.2457C157.756 45.6261 155.633 43.5024 153.013 43.5024C150.394 43.5024 148.27 45.6261 148.27 48.2457C148.27 50.8653 150.394 52.9889 153.013 52.9889Z" fill="#EAEEF9"/>
<path d="M159.955 34.4786C161.744 34.4786 163.194 33.0283 163.194 31.2393C163.194 29.4503 161.744 28 159.955 28C158.166 28 156.715 29.4503 156.715 31.2393C156.715 33.0283 158.166 34.4786 159.955 34.4786Z" fill="#EAEEF9"/>
<path d="M42.6465 52.8731C44.4355 52.8731 45.8858 51.4228 45.8858 49.6338C45.8858 47.8448 44.4355 46.3945 42.6465 46.3945C40.8575 46.3945 39.4072 47.8448 39.4072 49.6338C39.4072 51.4228 40.8575 52.8731 42.6465 52.8731Z" fill="#EAEEF9"/>
<path d="M29.0158 122.897C32.3382 122.897 35.0316 120.204 35.0316 116.882C35.0316 113.559 32.3382 110.866 29.0158 110.866C25.6934 110.866 23 113.559 23 116.882C23 120.204 25.6934 122.897 29.0158 122.897Z" fill="#EAEEF9"/>
<g filter="url(#filter0_d_29222_3472)">
<path d="M144.987 129.86H51.3657C47.0613 129.86 43.564 126.362 43.564 122.058V62.065C43.564 57.7605 47.0613 54.2632 51.3657 54.2632H144.987C149.291 54.2632 152.789 57.7605 152.789 62.065V122.327C152.52 126.362 149.022 129.86 144.987 129.86Z" fill="url(#paint9_linear_29222_3472)"/>
</g>
<path fill-rule="evenodd" clip-rule="evenodd" d="M129.012 97.7983H140.714C145.29 97.7983 148.353 101.011 148.353 105.789V116.817C148.353 121.58 145.29 124.792 140.714 124.792H129.012C124.437 124.792 121.359 121.58 121.359 116.817V105.789C121.359 101.011 124.437 97.7983 129.012 97.7983ZM134.087 115.331L140.498 108.92C140.957 108.461 140.957 107.719 140.498 107.246C140.039 106.787 139.283 106.787 138.824 107.246L133.25 112.82L130.888 110.458C130.429 110 129.673 110 129.214 110.458C128.755 110.917 128.755 111.66 129.214 112.132L132.427 115.331C132.656 115.56 132.953 115.668 133.25 115.668C133.56 115.668 133.857 115.56 134.087 115.331Z" fill="url(#paint10_linear_29222_3472)"/>
<rect x="60.606" y="57.0278" width="16.2128" height="5.9613" rx="1" fill="#D8DDEB"/>
<rect x="118.722" y="57.0278" width="16.2128" height="5.9613" rx="1" fill="#D8DDEB"/>
<g filter="url(#filter1_d_29222_3472)">
<path d="M73.5022 43.502H63.9341C63.3818 43.502 62.9341 43.9497 62.9341 44.502V58.7738C62.9341 59.3261 63.3818 59.7738 63.9341 59.7738H73.5022C74.0545 59.7738 74.5022 59.3261 74.5022 58.7738V44.502C74.5022 43.9497 74.0545 43.502 73.5022 43.502Z" fill="url(#paint11_linear_29222_3472)"/>
</g>
<g filter="url(#filter2_d_29222_3472)">
<path d="M131.617 43.502H122.049C121.497 43.502 121.049 43.9497 121.049 44.502V58.7738C121.049 59.3261 121.497 59.7738 122.049 59.7738H131.617C132.17 59.7738 132.617 59.3261 132.617 58.7738V44.502C132.617 43.9497 132.17 43.502 131.617 43.502Z" fill="url(#paint12_linear_29222_3472)"/>
</g>
<path d="M77.4614 95.4242C82.3645 95.4242 86.3393 91.4495 86.3393 86.5463C86.3393 81.6432 82.3645 77.6685 77.4614 77.6685C72.5583 77.6685 68.5835 81.6432 68.5835 86.5463C68.5835 91.4495 72.5583 95.4242 77.4614 95.4242Z" stroke="#939DAE" stroke-width="4" stroke-miterlimit="10" stroke-linecap="round" stroke-linejoin="round"/>
<path d="M63.2031 109.955C63.2031 102.153 69.6598 95.6968 77.4615 95.6968C85.2633 95.6968 91.72 102.153 91.72 109.955" stroke="#939DAE" stroke-width="4" stroke-miterlimit="10" stroke-linecap="round" stroke-linejoin="round"/>
<path d="M106.516 84.9321H135.302" stroke="#939DAE" stroke-width="4" stroke-miterlimit="10" stroke-linecap="round" stroke-linejoin="round"/>
<path d="M106.516 99.4595H117.815" stroke="#939DAE" stroke-width="4" stroke-miterlimit="10" stroke-linecap="round" stroke-linejoin="round"/>
<defs>
<filter id="filter0_d_29222_3472" x="21.564" y="43.2632" width="153.225" height="119.597" filterUnits="userSpaceOnUse" color-interpolation-filters="sRGB">
<feFlood flood-opacity="0" result="BackgroundImageFix"/>
<feColorMatrix in="SourceAlpha" type="matrix" values="0 0 0 0 0 0 0 0 0 0 0 0 0 0 0 0 0 0 127 0" result="hardAlpha"/>
<feOffset dy="11"/>
<feGaussianBlur stdDeviation="11"/>
<feColorMatrix type="matrix" values="0 0 0 0 0.397708 0 0 0 0 0.47749 0 0 0 0 0.575 0 0 0 0.27 0"/>
<feBlend mode="normal" in2="BackgroundImageFix" result="effect1_dropShadow_29222_3472"/>
<feBlend mode="normal" in="SourceGraphic" in2="effect1_dropShadow_29222_3472" result="shape"/>
</filter>
<filter id="filter1_d_29222_3472" x="40.9341" y="32.502" width="55.5684" height="60.272" filterUnits="userSpaceOnUse" color-interpolation-filters="sRGB">
<feFlood flood-opacity="0" result="BackgroundImageFix"/>
<feColorMatrix in="SourceAlpha" type="matrix" values="0 0 0 0 0 0 0 0 0 0 0 0 0 0 0 0 0 0 127 0" result="hardAlpha"/>
<feOffset dy="11"/>
<feGaussianBlur stdDeviation="11"/>
<feColorMatrix type="matrix" values="0 0 0 0 0.397708 0 0 0 0 0.47749 0 0 0 0 0.575 0 0 0 0.27 0"/>
<feBlend mode="normal" in2="BackgroundImageFix" result="effect1_dropShadow_29222_3472"/>
<feBlend mode="normal" in="SourceGraphic" in2="effect1_dropShadow_29222_3472" result="shape"/>
</filter>
<filter id="filter2_d_29222_3472" x="99.0493" y="32.502" width="55.5684" height="60.272" filterUnits="userSpaceOnUse" color-interpolation-filters="sRGB">
<feFlood flood-opacity="0" result="BackgroundImageFix"/>
<feColorMatrix in="SourceAlpha" type="matrix" values="0 0 0 0 0 0 0 0 0 0 0 0 0 0 0 0 0 0 127 0" result="hardAlpha"/>
<feOffset dy="11"/>
<feGaussianBlur stdDeviation="11"/>
<feColorMatrix type="matrix" values="0 0 0 0 0.397708 0 0 0 0 0.47749 0 0 0 0 0.575 0 0 0 0.27 0"/>
<feBlend mode="normal" in2="BackgroundImageFix" result="effect1_dropShadow_29222_3472"/>
<feBlend mode="normal" in="SourceGraphic" in2="effect1_dropShadow_29222_3472" result="shape"/>
</filter>
<linearGradient id="paint0_linear_29222_3472" x1="178.466" y1="20" x2="178.466" y2="35" gradientUnits="userSpaceOnUse">
<stop stop-color="#7E92F8"/>
<stop offset="1" stop-color="#6972F0"/>
</linearGradient>
<linearGradient id="paint1_linear_29222_3472" x1="20.0332" y1="0" x2="20.0332" y2="20" gradientUnits="userSpaceOnUse">
<stop stop-color="#7E92F8"/>
<stop offset="1" stop-color="#6972F0"/>
</linearGradient>
<linearGradient id="paint2_linear_29222_3472" x1="10.0332" y1="128" x2="10.0332" y2="138" gradientUnits="userSpaceOnUse">
<stop stop-color="#7E92F8"/>
<stop offset="1" stop-color="#6972F0"/>
</linearGradient>
<linearGradient id="paint3_linear_29222_3472" x1="165.533" y1="158" x2="165.533" y2="163" gradientUnits="userSpaceOnUse">
<stop stop-color="#7E92F8"/>
<stop offset="1" stop-color="#6972F0"/>
</linearGradient>
<linearGradient id="paint4_linear_29222_3472" x1="106.533" y1="2" x2="106.533" y2="7" gradientUnits="userSpaceOnUse">
<stop stop-color="#7E92F8"/>
<stop offset="1" stop-color="#6972F0"/>
</linearGradient>
<linearGradient id="paint5_linear_29222_3472" x1="62.5332" y1="173" x2="62.5332" y2="180" gradientUnits="userSpaceOnUse">
<stop stop-color="#7E92F8"/>
<stop offset="1" stop-color="#6972F0"/>
</linearGradient>
<linearGradient id="paint6_linear_29222_3472" x1="122.033" y1="170" x2="122.033" y2="172" gradientUnits="userSpaceOnUse">
<stop stop-color="#7E92F8"/>
<stop offset="1" stop-color="#6972F0"/>
</linearGradient>
<linearGradient id="paint7_linear_29222_3472" x1="170.533" y1="108" x2="170.533" y2="113" gradientUnits="userSpaceOnUse">
<stop stop-color="#7E92F8"/>
<stop offset="1" stop-color="#6972F0"/>
</linearGradient>
<linearGradient id="paint8_linear_29222_3472" x1="1.0332" y1="74" x2="1.0332" y2="76" gradientUnits="userSpaceOnUse">
<stop stop-color="#7E92F8"/>
<stop offset="1" stop-color="#6972F0"/>
</linearGradient>
<linearGradient id="paint9_linear_29222_3472" x1="98.1408" y1="52.5146" x2="98.1408" y2="130.675" gradientUnits="userSpaceOnUse">
<stop stop-color="#FDFEFF"/>
<stop offset="0.9964" stop-color="#ECF0F5"/>
</linearGradient>
<linearGradient id="paint10_linear_29222_3472" x1="134.856" y1="97.7983" x2="134.856" y2="124.792" gradientUnits="userSpaceOnUse">
<stop stop-color="#7E92F8"/>
<stop offset="1" stop-color="#6972F0"/>
</linearGradient>
<linearGradient id="paint11_linear_29222_3472" x1="68.7144" y1="43.1256" x2="68.7144" y2="59.9493" gradientUnits="userSpaceOnUse">
<stop stop-color="#FDFEFF"/>
<stop offset="0.9964" stop-color="#ECF0F5"/>
</linearGradient>
<linearGradient id="paint12_linear_29222_3472" x1="126.83" y1="43.1256" x2="126.83" y2="59.9493" gradientUnits="userSpaceOnUse">
<stop stop-color="#FDFEFF"/>
<stop offset="0.9964" stop-color="#ECF0F5"/>
</linearGradient>
</defs>
</svg>
